<?xml version="1.0" encoding="UTF-8"?>
<svg version="1.1" xmlns="http://www.w3.org/2000/svg" width="102" height="102">
<path d="M0 0 C33.66 0 67.32 0 102 0 C102 33.66 102 67.32 102 102 C68.34 102 34.68 102 0 102 C0 68.34 0 34.68 0 0 Z " fill="#0D0B28" transform="translate(0,0)"/>
<path d="M0 0 C34.89473684 0 34.89473684 0 41.6875 6.5625 C45.57229174 11.89119664 45.48768356 16.51288853 45 23 C43.2303188 28.51724137 39.61430353 31.71576179 35 35 C28.91710494 38.11562918 22.66897463 38.0411242 16 38 C16.01160156 39.21558594 16.02320312 40.43117187 16.03515625 41.68359375 C16.04453278 43.26822764 16.05363313 44.85286318 16.0625 46.4375 C16.07087891 47.23994141 16.07925781 48.04238281 16.08789062 48.86914062 C16.0965143 50.91295221 16.0522815 52.95683902 16 55 C15.505 55.495 15.505 55.495 15 56 C10.05 56 5.1 56 0 56 C0 37.52 0 19.04 0 0 Z " fill="#6B68CB" transform="translate(24,20)"/>
<path d="M0 0 C34.89473684 0 34.89473684 0 41.6875 6.5625 C45.57229174 11.89119664 45.48768356 16.51288853 45 23 C43.2303188 28.51724137 39.61430353 31.71576179 35 35 C28.6655258 38.24448679 21.95141551 38.13902831 15 38 C17.69826908 34.89863585 19.55207088 34.75007836 23.609375 34.359375 C28.76093595 33.58495734 34.7133988 32.19467754 38.5546875 28.5078125 C41.7467848 23.82451647 42.37029611 19.55444163 42 14 C41.10778985 10.49064009 40.28893232 8.08558931 37.46484375 5.70703125 C30.24525595 1.73123439 17.14361053 0.37022452 9.1105957 2.5012207 C7 3 7 3 1 3 C1 20.16 1 37.32 1 55 C0.67 55 0.34 55 0 55 C0 36.85 0 18.7 0 0 Z " fill="#7771BD" transform="translate(24,20)"/>
<path d="M0 0 C2.07404481 1.54283066 2.87508167 2.39255399 3.3984375 4.9375 C3.39070313 5.618125 3.38296875 6.29875 3.375 7 C3.38273437 7.680625 3.39046875 8.36125 3.3984375 9.0625 C2.87158939 11.62442804 2.11841995 12.47955855 0 14 C-3.39465568 14.68006458 -6.59287014 14.58455659 -10 14 C-12.6875 11.9375 -12.6875 11.9375 -14 9 C-14 5.26334037 -13.75990994 3.01321325 -11.5 0 C-7.6725548 -1.53097808 -3.93198524 -1.14411357 0 0 Z " fill="#7254B2" transform="translate(88,61)"/>
<path d="M0 0 C7.25581395 -0.48372093 7.25581395 -0.48372093 10.5 1.625 C12.44280469 4.70110743 12.52224493 6.41889189 12 10 C11.0625 12.375 11.0625 12.375 9 14 C5.92106988 14.33846395 3.11477081 14.18056642 0 14 C0 9.38 0 4.76 0 0 Z " fill="#040321" transform="translate(40,32)"/>
<path d="M0 0 C26 0 26 0 35 2 C35.66 2.66 36.32 3.32 37 4 C36.04480469 3.84789062 35.08960938 3.69578125 34.10546875 3.5390625 C29.52162361 2.88604051 24.93351685 2.61915629 20.3125 2.375 C19.47138672 2.3234375 18.63027344 2.271875 17.76367188 2.21875 C16.95091797 2.17492187 16.13816406 2.13109375 15.30078125 2.0859375 C14.57028564 2.0451709 13.83979004 2.0044043 13.0871582 1.96240234 C11.01045547 1.91795496 11.01045547 1.91795496 9.10620117 2.49462891 C7 3 7 3 1 3 C1 20.16 1 37.32 1 55 C0.67 55 0.34 55 0 55 C0 36.85 0 18.7 0 0 Z " fill="#8E8FE0" transform="translate(24,20)"/>
<path d="M0 0 C0.66 0 1.32 0 2 0 C2.20638953 34.69566704 2.20638953 34.69566704 1 49 C5.29 49 9.58 49 14 49 C14 50.32 14 51.64 14 53 C9.05 53 4.1 53 -1 53 C-0.67 35.51 -0.34 18.02 0 0 Z " fill="#7471CD" transform="translate(25,23)"/>
<path d="M0 0 C3.45831484 -0.02949232 6.91659654 -0.0469616 10.375 -0.0625 C11.34050781 -0.07087891 12.30601563 -0.07925781 13.30078125 -0.08789062 C19.59824289 -0.10902305 25.74839863 0.23892802 32 1 C28.32070555 3.45286296 26.52622093 3.23228878 22.14453125 3.1953125 C21.48289474 3.1924826 20.82125824 3.18965271 20.13957214 3.18673706 C18.03036263 3.17555918 15.92158075 3.15045981 13.8125 3.125 C12.38086552 3.11496707 10.94922436 3.10584176 9.51757812 3.09765625 C6.01158023 3.07562795 2.50583187 3.04111485 -1 3 C-0.67 2.01 -0.34 1.02 0 0 Z " fill="#020120" transform="translate(24,17)"/>
<path d="M0 0 C2.56665126 1.46910773 3.90862107 2.75923686 6 5 C6.875 8.8125 6.875 8.8125 7 12 C6.34 12 5.68 12 5 12 C4.401875 11.071875 3.80375 10.14375 3.1875 9.1875 C-0.62038771 3.63886363 -4.88434452 2.60069433 -11.20703125 1.33203125 C-11.79871094 1.22246094 -12.39039063 1.11289062 -13 1 C-7.92824054 -2.38117297 -5.63838277 -2.10244781 0 0 Z " fill="#0A0A37" transform="translate(63,20)"/>
<path d="M0 0 C1.5 1.125 1.5 1.125 3 3 C3.45185216 6.53950857 3.42109443 8.33326715 1.5 11.375 C1.005 11.91125 0.51 12.4475 0 13 C-1.875 12.75 -1.875 12.75 -4 12 C-5.25 9.9375 -5.25 9.9375 -6 8 C-5.01 7.34 -4.02 6.68 -3 6 C-3.99 5.34 -4.98 4.68 -6 4 C-5.67 3.34 -5.34 2.68 -5 2 C-4.01 2.33 -3.02 2.66 -2 3 C-2 3.66 -2 4.32 -2 5 C-1.01 5 -0.02 5 1 5 C0.67 3.35 0.34 1.7 0 0 Z " fill="#0C0928" transform="translate(49,33)"/>
<path d="M0 0 C0.99 0 1.98 0 3 0 C2.67 2.97 2.34 5.94 2 9 C4.64 9.99 7.28 10.98 10 12 C10 12.33 10 12.66 10 13 C2.75057208 13.60411899 2.75057208 13.60411899 -0.5625 10.9375 C-2.40779739 7.16667491 -2.00376838 5.0150735 -1 1 C-0.67 0.67 -0.34 0.34 0 0 Z " fill="#7362AE" transform="translate(76,62)"/>
<path d="M0 0 C7.28358209 -0.35820896 7.28358209 -0.35820896 10 1 C11.63983879 4.27967758 11.17845638 7.37138689 11 11 C9.02 11.99 9.02 11.99 7 13 C7.66 10.03 8.32 7.06 9 4 C4.545 3.01 4.545 3.01 0 2 C0 1.34 0 0.68 0 0 Z " fill="#816DBA" transform="translate(80,61)"/>
<path d="M0 0 C0 0.33 0 0.66 0 1 C-1.65 1 -3.3 1 -5 1 C-5 1.66 -5 2.32 -5 3 C-3.02 3 -1.04 3 1 3 C1.33 3.99 1.66 4.98 2 6 C1.01 6 0.02 6 -1 6 C-1.33 6.66 -1.66 7.32 -2 8 C-4.475 7.01 -4.475 7.01 -7 6 C-6.67 4.68 -6.34 3.36 -6 2 C-6.66 1.67 -7.32 1.34 -8 1 C-5.29120665 -0.35439668 -2.99066732 -0.06501451 0 0 Z " fill="#6F4FAF" transform="translate(85,60)"/>
<path d="M0 0 C2.625 -0.4375 2.625 -0.4375 6 0 C8.33122122 2.0949488 10.17328621 4.46073827 12 7 C11.34 8.32 10.68 9.64 10 11 C9.649375 9.906875 9.29875 8.81375 8.9375 7.6875 C7.62316459 4.53564713 6.46435287 3.37683541 3.3125 2.0625 C2.219375 1.711875 1.12625 1.36125 0 1 C0 0.67 0 0.34 0 0 Z " fill="#7B78C8" transform="translate(56,23)"/>
<path d="M0 0 C0.33 0.66 0.66 1.32 1 2 C1.66 2 2.32 2 3 2 C3 4.31 3 6.62 3 9 C2.01 9.33 1.02 9.66 0 10 C0 6.7 0 3.4 0 0 Z " fill="#040228" transform="translate(69,33)"/>
<path d="M0 0 C0.515625 0.61875 1.03125 1.2375 1.5625 1.875 C4.54458615 4.47476742 7.18446201 5.11949123 11 6 C11 6.33 11 6.66 11 7 C3.58358663 7.36474164 3.58358663 7.36474164 1 5.75 C0 4 0 4 0 0 Z " fill="#8370BB" transform="translate(75,68)"/>
<path d="M0 0 C2.6875 0.3125 2.6875 0.3125 5 1 C5.33 1.99 5.66 2.98 6 4 C3.03 3.67 0.06 3.34 -3 3 C-2.01 2.01 -1.02 1.02 0 0 Z " fill="#777AD6" transform="translate(43,28)"/>
<path d="M0 0 C1.5 1.125 1.5 1.125 3 3 C3.1875 6.1875 3.1875 6.1875 3 9 C2.34 9 1.68 9 1 9 C1 8.34 1 7.68 1 7 C0.34 7 -0.32 7 -1 7 C-1 6.34 -1 5.68 -1 5 C-0.34 5 0.32 5 1 5 C0.67 3.35 0.34 1.7 0 0 Z " fill="#181641" transform="translate(49,33)"/>
<path d="M0 0 C0 0.33 0 0.66 0 1 C-1.65 1 -3.3 1 -5 1 C-4.67 2.65 -4.34 4.3 -4 6 C-4.99 6 -5.98 6 -7 6 C-6.67 4.68 -6.34 3.36 -6 2 C-6.66 1.67 -7.32 1.34 -8 1 C-5.29120665 -0.35439668 -2.99066732 -0.06501451 0 0 Z " fill="#6551A1" transform="translate(85,60)"/>
</svg>
